<?xml version="1.0" encoding="UTF-8"?>
<!-- Official Firefly lockup (wordmark + tagline). The wordmark uses
     `currentColor` so it adapts to light/dark themes; the signature dot and the
     tagline keep their fixed amber. -->
<svg xmlns="http://www.w3.org/2000/svg" width="469" height="271" viewBox="0 0 469 271" fill="none" role="img" aria-label="firefly">
  <circle cx="454" cy="53" r="15" fill="url(#ffDot)"/>
  <path fill="currentColor" d="M14.85 145V87.55H4.05V68.95H15.15V67.6C15.15 62.8 15.6 58.65 16.5 55.15C17.5 51.55 18.85 48.55 20.55 46.15C22.25 43.75 24.35 41.85 26.85 40.45C29.35 39.05 32.1 38.05 35.1 37.45C38.2 36.85 41.55 36.55 45.15 36.55C46.75 36.55 48.55 36.7 50.55 37C52.65 37.2 54.35 37.55 55.65 38.05V59.95C54.55 58.75 53.45 57.8 52.35 57.1C51.25 56.3 49.65 55.9 47.55 55.9C46.35 55.9 45.25 56.1 44.25 56.5C43.35 56.8 42.55 57.3 41.85 58C41.25 58.6 40.75 59.45 40.35 60.55C40.05 61.65 39.9 62.9 39.9 64.3V68.95H55.65V87.55H39.6V145H14.85ZM69 145V70.15H93.9L94.05 145H69ZM68.7 59.2V40.75H94.2V59.2H68.7ZM113.161 145V77.35C114.661 75.95 117.211 74.45 120.811 72.85C124.411 71.15 128.511 69.7 133.111 68.5C137.811 67.2 142.411 66.55 146.911 66.55C152.411 66.55 156.711 66.95 159.811 67.75C162.911 68.55 165.261 69.55 166.861 70.75V88.6C165.261 88.2 163.161 87.85 160.561 87.55C157.961 87.25 155.211 87.05 152.311 86.95C149.411 86.85 146.661 86.85 144.061 86.95C141.561 87.05 139.511 87.2 137.911 87.4V145H113.161ZM212.128 147.25C204.328 147.25 197.428 145.7 191.428 142.6C185.528 139.4 180.928 134.9 177.628 129.1C174.328 123.2 172.678 116.25 172.678 108.25C172.678 94.95 176.028 84.6 182.728 77.2C189.428 69.8 199.078 66.1 211.678 66.1C220.078 66.1 226.878 67.9 232.078 71.5C237.278 75.1 241.128 80.45 243.628 87.55C246.128 94.65 247.328 103.35 247.228 113.65H189.928L186.928 98.5H226.228L223.228 106.6C223.128 98.5 222.078 92.85 220.078 89.65C218.178 86.35 214.978 84.7 210.478 84.7C208.078 84.7 205.878 85.4 203.878 86.8C201.878 88.1 200.278 90.25 199.078 93.25C197.978 96.25 197.428 100.3 197.428 105.4C197.428 112.3 199.028 117.6 202.228 121.3C205.528 124.9 210.928 126.7 218.428 126.7C221.128 126.7 223.828 126.4 226.528 125.8C229.228 125.1 231.728 124.3 234.028 123.4C236.328 122.5 238.278 121.8 239.878 121.3V142.3C236.378 143.6 232.378 144.75 227.878 145.75C223.478 146.75 218.228 147.25 212.128 147.25ZM267.243 145V87.55H256.443V68.95H267.543V67.6C267.543 62.8 267.993 58.65 268.893 55.15C269.893 51.55 271.243 48.55 272.943 46.15C274.643 43.75 276.743 41.85 279.243 40.45C281.743 39.05 284.493 38.05 287.493 37.45C290.593 36.85 293.943 36.55 297.543 36.55C299.143 36.55 300.943 36.7 302.943 37C305.043 37.2 306.743 37.55 308.043 38.05V59.95C306.943 58.75 305.843 57.8 304.743 57.1C303.643 56.3 302.043 55.9 299.943 55.9C298.743 55.9 297.643 56.1 296.643 56.5C295.743 56.8 294.943 57.3 294.243 58C293.643 58.6 293.143 59.45 292.743 60.55C292.443 61.65 292.293 62.9 292.293 64.3V68.95H308.043V87.55H291.993V145H267.243ZM345.693 145H321.093V40.3H345.693V145ZM382.828 174.4C380.128 174.4 377.428 174.15 374.728 173.65C372.128 173.15 369.828 172.45 367.828 171.55V151.6C369.728 152.2 371.378 152.65 372.778 152.95C374.278 153.25 375.778 153.4 377.278 153.4C379.578 153.4 381.628 152.85 383.428 151.75C385.228 150.75 386.728 148.95 387.928 146.35C389.128 143.75 389.978 140 390.478 135.1L391.078 149.5L358.378 68.95H386.728L402.478 119.95H400.228L415.678 68.95H442.378L413.128 144.85C410.328 152.05 407.328 157.8 404.128 162.1C400.928 166.5 397.528 169.65 393.928 171.55C390.328 173.45 386.628 174.4 382.828 174.4Z"/>
  <path fill="#F68000" d="M5.568 216V196.08H1.728V191.904H5.616V190.944C5.616 189.248 5.792 187.84 6.144 186.72C6.528 185.6 7.024 184.704 7.632 184.032C8.24 183.36 8.912 182.864 9.648 182.544C10.384 182.192 11.12 181.968 11.856 181.872C12.624 181.776 13.344 181.728 14.016 181.728C14.496 181.728 14.976 181.76 15.456 181.824C15.936 181.888 16.352 181.968 16.704 182.064V186.528C16.416 186.368 16.112 186.24 15.792 186.144C15.504 186.016 15.12 185.952 14.64 185.952C14.16 185.952 13.68 186 13.2 186.096C12.72 186.16 12.288 186.352 11.904 186.672C11.52 186.96 11.216 187.408 10.992 188.016C10.768 188.624 10.656 189.456 10.656 190.512V191.904H16.704V196.08H10.608V216H5.568ZM21.927 216V194.112C22.343 193.856 23.111 193.504 24.231 193.056C25.351 192.608 26.679 192.224 28.215 191.904C29.751 191.552 31.303 191.376 32.871 191.376C33.671 191.376 34.327 191.44 34.839 191.568C35.351 191.696 35.783 191.84 36.135 192V196.032C35.399 195.936 34.631 195.872 33.831 195.84C33.031 195.776 32.231 195.776 31.431 195.84C30.631 195.872 29.847 195.936 29.079 196.032C28.311 196.128 27.607 196.224 26.967 196.32V216H21.927ZM49.8349 216.72C48.5869 216.72 47.3869 216.592 46.2349 216.336C45.0829 216.112 44.0269 215.712 43.0669 215.136C42.1389 214.56 41.3869 213.776 40.8109 212.784C40.2669 211.76 39.9949 210.496 39.9949 208.992C39.9949 207.2 40.3469 205.728 41.0509 204.576C41.7549 203.424 42.7629 202.56 44.0749 201.984C45.3869 201.408 46.9549 201.12 48.7789 201.12C49.9949 201.12 51.0829 201.216 52.0429 201.408C53.0349 201.6 53.9149 201.872 54.6829 202.224C55.4829 202.544 56.1549 202.912 56.6989 203.328L57.2269 206.64C56.5229 206.16 55.5789 205.76 54.3949 205.44C53.2109 205.088 51.9309 204.912 50.5549 204.912C48.7309 204.912 47.3389 205.232 46.3789 205.872C45.4509 206.512 44.9869 207.472 44.9869 208.752C44.9869 209.712 45.2589 210.496 45.8029 211.104C46.3469 211.68 47.0189 212.112 47.8189 212.4C48.6509 212.656 49.5149 212.784 50.4109 212.784C52.2989 212.784 53.6909 212.656 54.5869 212.4C55.4829 212.144 55.9309 211.552 55.9309 210.624V200.544C55.9309 198.848 55.4189 197.616 54.3949 196.848C53.3709 196.048 51.9149 195.648 50.0269 195.648C48.6829 195.648 47.2909 195.872 45.8509 196.32C44.4109 196.736 43.2269 197.328 42.2989 198.096V193.392C43.1949 192.784 44.4909 192.304 46.1869 191.952C47.9149 191.568 49.6909 191.376 51.5149 191.376C52.4109 191.376 53.3069 191.472 54.2029 191.664C55.1309 191.824 55.9949 192.096 56.7949 192.48C57.5949 192.832 58.2989 193.328 58.9069 193.968C59.5469 194.576 60.0429 195.328 60.3949 196.224C60.7469 197.12 60.9229 198.176 60.9229 199.392V210.912C60.9229 212.48 60.4269 213.696 59.4349 214.56C58.4749 215.392 57.1629 215.952 55.4989 216.24C53.8349 216.56 51.9469 216.72 49.8349 216.72ZM88.8851 200.064V216H83.8451V200.736C83.8451 200.128 83.7651 199.536 83.6051 198.96C83.4771 198.352 83.2051 197.808 82.7891 197.328C82.4051 196.816 81.8291 196.416 81.0611 196.128C80.3251 195.84 79.3491 195.696 78.1331 195.696C77.2691 195.696 76.4051 195.776 75.5411 195.936C74.6771 196.096 73.8451 196.32 73.0451 196.608V216H68.0051V193.872C68.7091 193.52 69.4931 193.2 70.3571 192.912C71.2531 192.592 72.1971 192.32 73.1891 192.096C74.1811 191.872 75.1891 191.696 76.2131 191.568C77.2371 191.44 78.2291 191.376 79.1891 191.376C81.4611 191.376 83.3011 191.696 84.7091 192.336C86.1171 192.944 87.1571 193.904 87.8291 195.216C88.5331 196.496 88.8851 198.112 88.8851 200.064ZM83.1251 195.12C84.1491 194.288 85.2691 193.6 86.4851 193.056C87.7331 192.512 89.0131 192.096 90.3251 191.808C91.6691 191.52 92.9811 191.376 94.2611 191.376C96.5331 191.376 98.3731 191.696 99.7811 192.336C101.189 192.944 102.229 193.904 102.901 195.216C103.605 196.496 103.957 198.112 103.957 200.064V216H98.9171V200.736C98.9171 200.128 98.8371 199.536 98.6771 198.96C98.5491 198.352 98.2771 197.808 97.8611 197.328C97.4771 196.816 96.9011 196.416 96.1331 196.128C95.3971 195.84 94.4211 195.696 93.2051 195.696C92.3411 195.696 91.4771 195.824 90.6131 196.08C89.7491 196.336 88.9171 196.736 88.1171 197.28L83.1251 195.12ZM121.451 216.72C119.083 216.72 117.019 216.24 115.259 215.28C113.531 214.32 112.187 212.896 111.227 211.008C110.299 209.12 109.835 206.816 109.835 204.096C109.835 199.904 110.811 196.736 112.763 194.592C114.747 192.416 117.499 191.328 121.019 191.328C123.611 191.328 125.707 191.904 127.307 193.056C128.907 194.208 130.059 195.824 130.763 197.904C131.499 199.952 131.851 202.352 131.819 205.104H112.859L112.715 201.36H127.979L126.779 202.56C126.683 200.096 126.171 198.304 125.243 197.184C124.315 196.032 122.859 195.456 120.875 195.456C119.595 195.456 118.507 195.728 117.611 196.272C116.715 196.784 116.027 197.68 115.547 198.96C115.099 200.208 114.875 201.936 114.875 204.144C114.875 206.832 115.499 208.88 116.747 210.288C117.995 211.664 119.835 212.352 122.267 212.352C123.355 212.352 124.363 212.256 125.291 212.064C126.251 211.872 127.131 211.632 127.931 211.344C128.731 211.024 129.419 210.72 129.995 210.432V215.088C128.875 215.568 127.611 215.952 126.203 216.24C124.795 216.56 123.211 216.72 121.451 216.72ZM143.567 216L135.551 191.904H140.927L147.023 212.496L145.535 212.784L151.391 191.904H155.567L161.375 212.208H160.175L166.271 191.904H171.455L163.391 216H158.639L152.927 197.136L153.839 197.568L148.319 216H143.567ZM185.388 216.72C181.484 216.72 178.572 215.616 176.652 213.408C174.764 211.2 173.82 208.048 173.82 203.952C173.82 199.6 174.796 196.416 176.748 194.4C178.732 192.352 181.58 191.328 185.292 191.328C187.948 191.328 190.14 191.824 191.868 192.816C193.596 193.776 194.876 195.2 195.708 197.088C196.54 198.976 196.956 201.264 196.956 203.952C196.956 208.016 195.948 211.168 193.932 213.408C191.948 215.616 189.1 216.72 185.388 216.72ZM185.34 212.448C186.972 212.448 188.268 212.096 189.228 211.392C190.188 210.656 190.876 209.648 191.292 208.368C191.74 207.088 191.964 205.616 191.964 203.952C191.964 202.096 191.74 200.544 191.292 199.296C190.844 198.048 190.14 197.12 189.18 196.512C188.22 195.872 186.94 195.552 185.34 195.552C183.74 195.552 182.46 195.888 181.5 196.56C180.54 197.232 179.852 198.192 179.436 199.44C179.02 200.688 178.812 202.192 178.812 203.952C178.812 206.608 179.308 208.688 180.3 210.192C181.292 211.696 182.972 212.448 185.34 212.448ZM202.818 216V194.112C203.234 193.856 204.002 193.504 205.122 193.056C206.242 192.608 207.57 192.224 209.106 191.904C210.642 191.552 212.194 191.376 213.762 191.376C214.562 191.376 215.218 191.44 215.73 191.568C216.242 191.696 216.674 191.84 217.026 192V196.032C216.29 195.936 215.522 195.872 214.722 195.84C213.922 195.776 213.122 195.776 212.322 195.84C211.522 195.872 210.738 195.936 209.97 196.032C209.202 196.128 208.498 196.224 207.858 196.32V216H202.818ZM225.926 202.032L235.766 191.904H241.958L228.086 205.104L225.926 202.032ZM226.982 216H221.99V182.784H227.03L226.982 216ZM229.238 200.4L243.158 216H236.678L225.686 203.76L229.238 200.4Z"/>
  <defs>
    <linearGradient id="ffDot" x1="469" y1="53" x2="439" y2="53" gradientUnits="userSpaceOnUse">
      <stop stop-color="#F68000"/>
      <stop offset="1" stop-color="#FFF9C1"/>
    </linearGradient>
  </defs>
</svg>
