<svg xmlns="http://www.w3.org/2000/svg" viewBox="0 0 560 300" role="img"
     aria-label="CQRS dispatch: a message is matched to a handler by TypeId, passes the Validation, Correlation and QueryCache middleware chain with validation outermost, then reaches your command or query handler"
     font-family="Avenir Next,Avenir,Helvetica Neue,Helvetica,Arial,sans-serif">
<text x="280.0" y="24.0" text-anchor="middle" font-size="12.5" font-weight="700" fill="#3a2a1c" font-family="Avenir Next,Avenir,Helvetica Neue,Helvetica,Arial,sans-serif">send / query a message</text>
<line x1="280.0" y1="30.0" x2="280.0" y2="46.0" stroke="#d4793a" stroke-width="3.0" stroke-linecap="round"/><polygon points="280.0,54.0 275.5,46.0 284.5,46.0" fill="#b5531f"/>
<rect x="180.0" y="58.5" width="200.0" height="46.0" rx="9" fill="#d9c4a3" opacity="0.22"/><rect x="180.0" y="56.0" width="200.0" height="46.0" rx="9" fill="#fdf6ea" stroke="#e0cda8" stroke-width="1.5"/><text x="280.0" y="76.0" text-anchor="middle" font-size="13" font-weight="700" fill="#2a1d10" font-family="SF Mono,JetBrains Mono,Menlo,Consolas,monospace">msg ↦ TypeId</text><text x="280.0" y="90.0" text-anchor="middle" font-size="10.0" fill="#7a6450" font-family="Avenir Next,Avenir,Helvetica Neue,Helvetica,Arial,sans-serif">matched to a handler</text>
<text x="280.0" y="120.0" text-anchor="middle" font-size="11.5" font-weight="700" fill="#7a6450" font-family="Avenir Next,Avenir,Helvetica Neue,Helvetica,Arial,sans-serif">middleware chain</text>
<line x1="280.0" y1="102.0" x2="280.0" y2="122.0" stroke="#d4793a" stroke-width="3.0" stroke-linecap="round"/><polygon points="280.0,130.0 275.5,122.0 284.5,122.0" fill="#b5531f"/>
<rect x="96.0" y="142.5" width="60.0" height="52.0" rx="9" fill="#d9c4a3" opacity="0.22"/><rect x="96.0" y="140.0" width="60.0" height="52.0" rx="9" fill="#fdf6ea" stroke="#e0cda8" stroke-width="1.5"/><text x="126.0" y="170.5" text-anchor="middle" font-size="18" font-weight="700" fill="#2a1d10" font-family="SF Mono,JetBrains Mono,Menlo,Consolas,monospace">V</text>
<line x1="156.0" y1="166.0" x2="176.0" y2="166.0" stroke="#d4793a" stroke-width="3.0" stroke-linecap="round"/><polygon points="184.0,166.0 176.0,170.5 176.0,161.5" fill="#b5531f"/>
<rect x="184.0" y="142.5" width="60.0" height="52.0" rx="9" fill="#d9c4a3" opacity="0.22"/><rect x="184.0" y="140.0" width="60.0" height="52.0" rx="9" fill="#fdf6ea" stroke="#e0cda8" stroke-width="1.5"/><text x="214.0" y="170.5" text-anchor="middle" font-size="18" font-weight="700" fill="#2a1d10" font-family="SF Mono,JetBrains Mono,Menlo,Consolas,monospace">C</text>
<line x1="244.0" y1="166.0" x2="264.0" y2="166.0" stroke="#d4793a" stroke-width="3.0" stroke-linecap="round"/><polygon points="272.0,166.0 264.0,170.5 264.0,161.5" fill="#b5531f"/>
<rect x="272.0" y="142.5" width="60.0" height="52.0" rx="9" fill="#d9c4a3" opacity="0.22"/><rect x="272.0" y="140.0" width="60.0" height="52.0" rx="9" fill="#fdf6ea" stroke="#e0cda8" stroke-width="1.5"/><text x="302.0" y="170.5" text-anchor="middle" font-size="18" font-weight="700" fill="#2a1d10" font-family="SF Mono,JetBrains Mono,Menlo,Consolas,monospace">Q</text>
<text x="280.0" y="212.0" text-anchor="middle" font-size="10.5" font-weight="600" fill="#7a6450" font-family="Avenir Next,Avenir,Helvetica Neue,Helvetica,Arial,sans-serif">V = Validation   ·   C = Correlation   ·   Q = QueryCache</text>
<line x1="280.0" y1="222.0" x2="280.0" y2="240.0" stroke="#d4793a" stroke-width="3.0" stroke-linecap="round"/><polygon points="280.0,248.0 275.5,240.0 284.5,240.0" fill="#b5531f"/>
<rect x="190.0" y="252.5" width="180.0" height="44.0" rx="9" fill="#d9c4a3" opacity="0.22"/><rect x="190.0" y="250.0" width="180.0" height="44.0" rx="9" fill="#fff6e6" stroke="#e0b96a" stroke-width="1.5"/><text x="280.0" y="269.0" text-anchor="middle" font-size="13" font-weight="700" fill="#2a1d10" font-family="Avenir Next,Avenir,Helvetica Neue,Helvetica,Arial,sans-serif">your handler</text><text x="280.0" y="283.0" text-anchor="middle" font-size="10.0" fill="#7a6450" font-family="Avenir Next,Avenir,Helvetica Neue,Helvetica,Arial,sans-serif">Command or Query</text>
</svg>
