<svg xmlns="http://www.w3.org/2000/svg" viewBox="0 0 560 300" role="img"
     aria-label="Dependency-injection bean graph: a Container scans stereotype beans and autowires WalletApi to the Ledger and ReadModel, which in turn autowire the EventStore and Broker ports, in dependency order"
     font-family="Avenir Next,Avenir,Helvetica Neue,Helvetica,Arial,sans-serif">
<rect x="16" y="14" width="528" height="272" rx="14" fill="#fbf3e3" stroke="#e6d4b0" stroke-width="1.3"/>
<text x="36.0" y="36.0" text-anchor="start" font-size="12" font-weight="700" fill="#3a2a1c" font-family="Avenir Next,Avenir,Helvetica Neue,Helvetica,Arial,sans-serif">Container  ·  scan() wires beans in dependency order</text>
<rect x="196.0" y="56.5" width="168.0" height="48.0" rx="9" fill="#d9c4a3" opacity="0.22"/><rect x="196.0" y="54.0" width="168.0" height="48.0" rx="9" fill="#fff6e6" stroke="#e0b96a" stroke-width="1.5"/><text x="280.0" y="75.0" text-anchor="middle" font-size="14" font-weight="700" fill="#2a1d10" font-family="Avenir Next,Avenir,Helvetica Neue,Helvetica,Arial,sans-serif">WalletApi</text><text x="280.0" y="89.0" text-anchor="middle" font-size="10.0" fill="#7a6450" font-family="Avenir Next,Avenir,Helvetica Neue,Helvetica,Arial,sans-serif">#[derive(Controller)]</text>
<rect x="70.0" y="152.5" width="168.0" height="48.0" rx="9" fill="#d9c4a3" opacity="0.22"/><rect x="70.0" y="150.0" width="168.0" height="48.0" rx="9" fill="#fdf6ea" stroke="#e0cda8" stroke-width="1.5"/><text x="154.0" y="171.0" text-anchor="middle" font-size="13.0" font-weight="700" fill="#2a1d10" font-family="Avenir Next,Avenir,Helvetica Neue,Helvetica,Arial,sans-serif">Ledger</text><text x="154.0" y="185.0" text-anchor="middle" font-size="10.0" fill="#7a6450" font-family="Avenir Next,Avenir,Helvetica Neue,Helvetica,Arial,sans-serif">#[derive(Service)]</text>
<rect x="322.0" y="152.5" width="168.0" height="48.0" rx="9" fill="#d9c4a3" opacity="0.22"/><rect x="322.0" y="150.0" width="168.0" height="48.0" rx="9" fill="#fdf6ea" stroke="#e0cda8" stroke-width="1.5"/><text x="406.0" y="171.0" text-anchor="middle" font-size="13.0" font-weight="700" fill="#2a1d10" font-family="Avenir Next,Avenir,Helvetica Neue,Helvetica,Arial,sans-serif">ReadModel</text><text x="406.0" y="185.0" text-anchor="middle" font-size="10.0" fill="#7a6450" font-family="Avenir Next,Avenir,Helvetica Neue,Helvetica,Arial,sans-serif">#[derive(Component)]</text>
<rect x="70.0" y="236.5" width="168.0" height="44.0" rx="9" fill="#d9c4a3" opacity="0.22"/><rect x="70.0" y="234.0" width="168.0" height="44.0" rx="9" fill="#fdf6ea" stroke="#e0cda8" stroke-width="1.5"/><text x="154.0" y="253.0" text-anchor="middle" font-size="13.0" font-weight="700" fill="#2a1d10" font-family="Avenir Next,Avenir,Helvetica Neue,Helvetica,Arial,sans-serif">EventStore</text><text x="154.0" y="267.0" text-anchor="middle" font-size="10.0" fill="#7a6450" font-family="Avenir Next,Avenir,Helvetica Neue,Helvetica,Arial,sans-serif">#[derive(Repository)]</text>
<rect x="322.0" y="236.5" width="168.0" height="44.0" rx="9" fill="#d9c4a3" opacity="0.22"/><rect x="322.0" y="234.0" width="168.0" height="44.0" rx="9" fill="#fdf6ea" stroke="#e0cda8" stroke-width="1.5"/><text x="406.0" y="253.0" text-anchor="middle" font-size="13.0" font-weight="700" fill="#2a1d10" font-family="Avenir Next,Avenir,Helvetica Neue,Helvetica,Arial,sans-serif">Broker</text><text x="406.0" y="267.0" text-anchor="middle" font-size="10.0" fill="#7a6450" font-family="Avenir Next,Avenir,Helvetica Neue,Helvetica,Arial,sans-serif">port — #[autowired]</text>
<line x1="248.0" y1="102.0" x2="176.8" y2="145.8" stroke="#d4793a" stroke-width="3.0" stroke-linecap="round"/><polygon points="170.0,150.0 174.5,142.0 179.2,149.6" fill="#b5531f"/><text x="209.0" y="124.0" text-anchor="middle" font-size="10.5" font-weight="600" fill="#d4793a" font-family="Avenir Next,Avenir,Helvetica Neue,Helvetica,Arial,sans-serif">autowired</text>
<line x1="312.0" y1="102.0" x2="383.2" y2="145.8" stroke="#d4793a" stroke-width="3.0" stroke-linecap="round"/><polygon points="390.0,150.0 380.8,149.6 385.5,142.0" fill="#b5531f"/><text x="351.0" y="124.0" text-anchor="middle" font-size="10.5" font-weight="600" fill="#d4793a" font-family="Avenir Next,Avenir,Helvetica Neue,Helvetica,Arial,sans-serif">autowired</text>
<line x1="154.0" y1="198.0" x2="154.0" y2="226.0" stroke="#d4793a" stroke-width="3.0" stroke-linecap="round"/><polygon points="154.0,234.0 149.5,226.0 158.5,226.0" fill="#b5531f"/>
<line x1="406.0" y1="198.0" x2="406.0" y2="226.0" stroke="#d4793a" stroke-width="3.0" stroke-linecap="round"/><polygon points="406.0,234.0 401.5,226.0 410.5,226.0" fill="#b5531f"/>
</svg>
