<svg xmlns="http://www.w3.org/2000/svg" viewBox="0 0 560 322" role="img"
     aria-label="Event sourcing: a command raises an event onto the aggregate, EventStore append persists the events to an append-only stream under optimistic concurrency, and a later load folds the stream back into the current state"
     font-family="Avenir Next,Avenir,Helvetica Neue,Helvetica,Arial,sans-serif">
<text x="150.0" y="24.0" text-anchor="middle" font-size="11.5" font-weight="700" fill="#7a6450" font-family="Avenir Next,Avenir,Helvetica Neue,Helvetica,Arial,sans-serif">write path</text>
<rect x="50.0" y="38.5" width="200.0" height="52.0" rx="9" fill="#d9c4a3" opacity="0.22"/><rect x="50.0" y="36.0" width="200.0" height="52.0" rx="9" fill="#fdf6ea" stroke="#e0cda8" stroke-width="1.5"/><text x="150.0" y="59.0" text-anchor="middle" font-size="13.0" font-weight="700" fill="#2a1d10" font-family="Avenir Next,Avenir,Helvetica Neue,Helvetica,Arial,sans-serif">Command</text><text x="150.0" y="73.0" text-anchor="middle" font-size="10.0" fill="#7a6450" font-family="Avenir Next,Avenir,Helvetica Neue,Helvetica,Arial,sans-serif">Deposit { amount }</text><line x1="150.0" y1="88.0" x2="150.0" y2="102.0" stroke="#d4793a" stroke-width="3.0" stroke-linecap="round"/><polygon points="150.0,110.0 145.5,102.0 154.5,102.0" fill="#b5531f"/><rect x="50.0" y="112.5" width="200.0" height="52.0" rx="9" fill="#d9c4a3" opacity="0.22"/><rect x="50.0" y="110.0" width="200.0" height="52.0" rx="9" fill="#fdf6ea" stroke="#e0cda8" stroke-width="1.5"/><text x="150.0" y="133.0" text-anchor="middle" font-size="13.0" font-weight="700" fill="#2a1d10" font-family="Avenir Next,Avenir,Helvetica Neue,Helvetica,Arial,sans-serif">raise(event)</text><text x="150.0" y="147.0" text-anchor="middle" font-size="10.0" fill="#7a6450" font-family="Avenir Next,Avenir,Helvetica Neue,Helvetica,Arial,sans-serif">→ uncommitted []</text><line x1="150.0" y1="162.0" x2="150.0" y2="176.0" stroke="#d4793a" stroke-width="3.0" stroke-linecap="round"/><polygon points="150.0,184.0 145.5,176.0 154.5,176.0" fill="#b5531f"/><rect x="50.0" y="186.5" width="200.0" height="52.0" rx="9" fill="#d9c4a3" opacity="0.22"/><rect x="50.0" y="184.0" width="200.0" height="52.0" rx="9" fill="#fdf6ea" stroke="#e0cda8" stroke-width="1.5"/><text x="150.0" y="207.0" text-anchor="middle" font-size="13.0" font-weight="700" fill="#2a1d10" font-family="Avenir Next,Avenir,Helvetica Neue,Helvetica,Arial,sans-serif">append(events)</text><text x="150.0" y="221.0" text-anchor="middle" font-size="10.0" fill="#7a6450" font-family="Avenir Next,Avenir,Helvetica Neue,Helvetica,Arial,sans-serif">optimistic concurrency</text>
<text x="420.0" y="24.0" text-anchor="middle" font-size="11.5" font-weight="700" fill="#7a6450" font-family="Avenir Next,Avenir,Helvetica Neue,Helvetica,Arial,sans-serif">event stream (append-only)</text>
<rect x="330.0" y="46.5" width="180.0" height="50.0" rx="9" fill="#d9c4a3" opacity="0.22"/><rect x="330.0" y="44.0" width="180.0" height="50.0" rx="9" fill="#fff6e6" stroke="#e0b96a" stroke-width="1.5"/><text x="420.0" y="66.0" text-anchor="middle" font-size="14" font-weight="700" fill="#2a1d10" font-family="SF Mono,JetBrains Mono,Menlo,Consolas,monospace">+100</text><text x="420.0" y="80.0" text-anchor="middle" font-size="10.0" fill="#7a6450" font-family="Avenir Next,Avenir,Helvetica Neue,Helvetica,Arial,sans-serif">WalletOpened</text>
<line x1="420.0" y1="94.0" x2="420.0" y2="106.0" stroke="#d4793a" stroke-width="3.0" stroke-linecap="round"/><polygon points="420.0,114.0 415.5,106.0 424.5,106.0" fill="#b5531f"/>
<rect x="330.0" y="116.5" width="180.0" height="50.0" rx="9" fill="#d9c4a3" opacity="0.22"/><rect x="330.0" y="114.0" width="180.0" height="50.0" rx="9" fill="#fff6e6" stroke="#e0b96a" stroke-width="1.5"/><text x="420.0" y="136.0" text-anchor="middle" font-size="14" font-weight="700" fill="#2a1d10" font-family="SF Mono,JetBrains Mono,Menlo,Consolas,monospace">+50</text><text x="420.0" y="150.0" text-anchor="middle" font-size="10.0" fill="#7a6450" font-family="Avenir Next,Avenir,Helvetica Neue,Helvetica,Arial,sans-serif">MoneyDeposited</text>
<line x1="420.0" y1="164.0" x2="420.0" y2="176.0" stroke="#d4793a" stroke-width="3.0" stroke-linecap="round"/><polygon points="420.0,184.0 415.5,176.0 424.5,176.0" fill="#b5531f"/>
<rect x="330.0" y="186.5" width="180.0" height="50.0" rx="9" fill="#d9c4a3" opacity="0.22"/><rect x="330.0" y="184.0" width="180.0" height="50.0" rx="9" fill="#fff6e6" stroke="#e0b96a" stroke-width="1.5"/><text x="420.0" y="206.0" text-anchor="middle" font-size="14" font-weight="700" fill="#2a1d10" font-family="SF Mono,JetBrains Mono,Menlo,Consolas,monospace">−30</text><text x="420.0" y="220.0" text-anchor="middle" font-size="10.0" fill="#7a6450" font-family="Avenir Next,Avenir,Helvetica Neue,Helvetica,Arial,sans-serif">MoneyWithdrawn</text>
<line x1="250.0" y1="198.0" x2="324.6" y2="115.9" stroke="#d4793a" stroke-width="3.0" stroke-linecap="round"/><polygon points="330.0,110.0 327.9,118.9 321.3,112.9" fill="#b5531f"/><text x="290.0" y="150.0" text-anchor="middle" font-size="10.5" font-weight="600" fill="#d4793a" font-family="Avenir Next,Avenir,Helvetica Neue,Helvetica,Arial,sans-serif">append</text>
<line x1="330.0" y1="244.0" x2="257.1" y2="282.3" stroke="#1f8a4c" stroke-width="3.0" stroke-linecap="round"/><polygon points="250.0,286.0 255.0,278.3 259.2,286.3" fill="#1f8a4c"/><text x="290.0" y="279.0" text-anchor="middle" font-size="10.5" font-weight="600" fill="#1f8a4c" font-family="Avenir Next,Avenir,Helvetica Neue,Helvetica,Arial,sans-serif">fold / replay</text>
<rect x="50.0" y="266.5" width="200.0" height="46.0" rx="9" fill="#d9c4a3" opacity="0.22"/><rect x="50.0" y="264.0" width="200.0" height="46.0" rx="9" fill="#fff6e6" stroke="#e0b96a" stroke-width="1.5"/><text x="150.0" y="284.0" text-anchor="middle" font-size="14" font-weight="700" fill="#2a1d10" font-family="Avenir Next,Avenir,Helvetica Neue,Helvetica,Arial,sans-serif">current state</text><text x="150.0" y="298.0" text-anchor="middle" font-size="10.0" fill="#7a6450" font-family="Avenir Next,Avenir,Helvetica Neue,Helvetica,Arial,sans-serif">balance = 120</text>
</svg>
