<svg xmlns="http://www.w3.org/2000/svg" viewBox="0 0 560 300" role="img"
     aria-label="Declarative macros mapped to generated code: derive Command emits a Message impl, derive Schema emits an OpenAPI schema, derive DomainEvent emits EVENT_TYPE and to_domain_event, rest_controller emits a controller bean and routes builder, derive Service emits a scanned bean with autowired fields"
     font-family="Avenir Next,Avenir,Helvetica Neue,Helvetica,Arial,sans-serif">
<text x="150.0" y="24.0" text-anchor="middle" font-size="11.5" font-weight="700" fill="#7a6450" font-family="Avenir Next,Avenir,Helvetica Neue,Helvetica,Arial,sans-serif">you write</text>
<text x="430.0" y="24.0" text-anchor="middle" font-size="11.5" font-weight="700" fill="#7a6450" font-family="Avenir Next,Avenir,Helvetica Neue,Helvetica,Arial,sans-serif">the macro generates</text>
<rect x="24.0" y="42.5" width="240.0" height="40.0" rx="9" fill="#d9c4a3" opacity="0.22"/><rect x="24.0" y="40.0" width="240.0" height="40.0" rx="9" fill="#fff6e6" stroke="#e0b96a" stroke-width="1.5"/><text x="144.0" y="64.5" text-anchor="middle" font-size="12.5" font-weight="700" fill="#2a1d10" font-family="SF Mono,JetBrains Mono,Menlo,Consolas,monospace">#[derive(Command)]</text>
<line x1="264.0" y1="60.0" x2="296.0" y2="60.0" stroke="#d4793a" stroke-width="2.4" stroke-linecap="round"/><polygon points="304.0,60.0 296.0,64.5 296.0,55.5" fill="#b5531f"/>
<rect x="304.0" y="42.5" width="232.0" height="40.0" rx="9" fill="#d9c4a3" opacity="0.22"/><rect x="304.0" y="40.0" width="232.0" height="40.0" rx="9" fill="#fdf6ea" stroke="#e0cda8" stroke-width="1.5"/><text x="420.0" y="64.5" text-anchor="middle" font-size="11" font-weight="700" fill="#2a1d10" font-family="Avenir Next,Avenir,Helvetica Neue,Helvetica,Arial,sans-serif">the Message impl  (kind, validate, cache_ttl)</text>
<rect x="24.0" y="90.5" width="240.0" height="40.0" rx="9" fill="#d9c4a3" opacity="0.22"/><rect x="24.0" y="88.0" width="240.0" height="40.0" rx="9" fill="#fff6e6" stroke="#e0b96a" stroke-width="1.5"/><text x="144.0" y="112.5" text-anchor="middle" font-size="12.5" font-weight="700" fill="#2a1d10" font-family="SF Mono,JetBrains Mono,Menlo,Consolas,monospace">#[derive(Schema)]</text>
<line x1="264.0" y1="108.0" x2="296.0" y2="108.0" stroke="#d4793a" stroke-width="2.4" stroke-linecap="round"/><polygon points="304.0,108.0 296.0,112.5 296.0,103.5" fill="#b5531f"/>
<rect x="304.0" y="90.5" width="232.0" height="40.0" rx="9" fill="#d9c4a3" opacity="0.22"/><rect x="304.0" y="88.0" width="232.0" height="40.0" rx="9" fill="#fdf6ea" stroke="#e0cda8" stroke-width="1.5"/><text x="420.0" y="112.5" text-anchor="middle" font-size="11" font-weight="700" fill="#2a1d10" font-family="Avenir Next,Avenir,Helvetica Neue,Helvetica,Arial,sans-serif">an OpenAPI schema  (appears in /v3/api-docs)</text>
<rect x="24.0" y="138.5" width="240.0" height="40.0" rx="9" fill="#d9c4a3" opacity="0.22"/><rect x="24.0" y="136.0" width="240.0" height="40.0" rx="9" fill="#fff6e6" stroke="#e0b96a" stroke-width="1.5"/><text x="144.0" y="160.5" text-anchor="middle" font-size="12.5" font-weight="700" fill="#2a1d10" font-family="SF Mono,JetBrains Mono,Menlo,Consolas,monospace">#[derive(DomainEvent)]</text>
<line x1="264.0" y1="156.0" x2="296.0" y2="156.0" stroke="#d4793a" stroke-width="2.4" stroke-linecap="round"/><polygon points="304.0,156.0 296.0,160.5 296.0,151.5" fill="#b5531f"/>
<rect x="304.0" y="138.5" width="232.0" height="40.0" rx="9" fill="#d9c4a3" opacity="0.22"/><rect x="304.0" y="136.0" width="232.0" height="40.0" rx="9" fill="#fdf6ea" stroke="#e0cda8" stroke-width="1.5"/><text x="420.0" y="160.5" text-anchor="middle" font-size="11" font-weight="700" fill="#2a1d10" font-family="Avenir Next,Avenir,Helvetica Neue,Helvetica,Arial,sans-serif">EVENT_TYPE + to_domain_event</text>
<rect x="24.0" y="186.5" width="240.0" height="40.0" rx="9" fill="#d9c4a3" opacity="0.22"/><rect x="24.0" y="184.0" width="240.0" height="40.0" rx="9" fill="#fff6e6" stroke="#e0b96a" stroke-width="1.5"/><text x="144.0" y="208.5" text-anchor="middle" font-size="12.5" font-weight="700" fill="#2a1d10" font-family="SF Mono,JetBrains Mono,Menlo,Consolas,monospace">#[rest_controller]</text>
<line x1="264.0" y1="204.0" x2="296.0" y2="204.0" stroke="#d4793a" stroke-width="2.4" stroke-linecap="round"/><polygon points="304.0,204.0 296.0,208.5 296.0,199.5" fill="#b5531f"/>
<rect x="304.0" y="186.5" width="232.0" height="40.0" rx="9" fill="#d9c4a3" opacity="0.22"/><rect x="304.0" y="184.0" width="232.0" height="40.0" rx="9" fill="#fdf6ea" stroke="#e0cda8" stroke-width="1.5"/><text x="420.0" y="208.5" text-anchor="middle" font-size="11" font-weight="700" fill="#2a1d10" font-family="Avenir Next,Avenir,Helvetica Neue,Helvetica,Arial,sans-serif">a Controller bean + WalletApi::routes(state)</text>
<rect x="24.0" y="234.5" width="240.0" height="40.0" rx="9" fill="#d9c4a3" opacity="0.22"/><rect x="24.0" y="232.0" width="240.0" height="40.0" rx="9" fill="#fff6e6" stroke="#e0b96a" stroke-width="1.5"/><text x="144.0" y="256.5" text-anchor="middle" font-size="12.5" font-weight="700" fill="#2a1d10" font-family="SF Mono,JetBrains Mono,Menlo,Consolas,monospace">#[derive(Service)]</text>
<line x1="264.0" y1="252.0" x2="296.0" y2="252.0" stroke="#d4793a" stroke-width="2.4" stroke-linecap="round"/><polygon points="304.0,252.0 296.0,256.5 296.0,247.5" fill="#b5531f"/>
<rect x="304.0" y="234.5" width="232.0" height="40.0" rx="9" fill="#d9c4a3" opacity="0.22"/><rect x="304.0" y="232.0" width="232.0" height="40.0" rx="9" fill="#fdf6ea" stroke="#e0cda8" stroke-width="1.5"/><text x="420.0" y="256.5" text-anchor="middle" font-size="11" font-weight="700" fill="#2a1d10" font-family="Avenir Next,Avenir,Helvetica Neue,Helvetica,Arial,sans-serif">a scanned bean with #[autowired] fields</text>
</svg>
