<svg xmlns="http://www.w3.org/2000/svg" viewBox="0 0 600 250" role="img"
     aria-label="OpenAPI generation: rest_controller routes and derive Schema DTOs are harvested into one openapi.json spec served at /v3/api-docs, which Swagger UI and ReDoc render"
     font-family="Avenir Next,Avenir,Helvetica Neue,Helvetica,Arial,sans-serif">
<rect x="24.0" y="42.5" width="200.0" height="50.0" rx="9" fill="#d9c4a3" opacity="0.22"/><rect x="24.0" y="40.0" width="200.0" height="50.0" rx="9" fill="#fdf6ea" stroke="#e0cda8" stroke-width="1.5"/><text x="124.0" y="62.0" text-anchor="middle" font-size="13" font-weight="700" fill="#2a1d10" font-family="SF Mono,JetBrains Mono,Menlo,Consolas,monospace">#[rest_controller]</text><text x="124.0" y="76.0" text-anchor="middle" font-size="10.0" fill="#7a6450" font-family="Avenir Next,Avenir,Helvetica Neue,Helvetica,Arial,sans-serif">routes + status codes</text>
<rect x="24.0" y="152.5" width="200.0" height="50.0" rx="9" fill="#d9c4a3" opacity="0.22"/><rect x="24.0" y="150.0" width="200.0" height="50.0" rx="9" fill="#fdf6ea" stroke="#e0cda8" stroke-width="1.5"/><text x="124.0" y="172.0" text-anchor="middle" font-size="13" font-weight="700" fill="#2a1d10" font-family="SF Mono,JetBrains Mono,Menlo,Consolas,monospace">#[derive(Schema)]</text><text x="124.0" y="186.0" text-anchor="middle" font-size="10.0" fill="#7a6450" font-family="Avenir Next,Avenir,Helvetica Neue,Helvetica,Arial,sans-serif">DTO component schemas</text>
<line x1="224.0" y1="65.0" x2="310.8" y2="106.5" stroke="#d4793a" stroke-width="3.0" stroke-linecap="round"/><polygon points="318.0,110.0 308.8,110.6 312.7,102.5" fill="#b5531f"/>
<line x1="224.0" y1="175.0" x2="310.8" y2="133.5" stroke="#d4793a" stroke-width="3.0" stroke-linecap="round"/><polygon points="318.0,130.0 312.7,137.5 308.8,129.4" fill="#b5531f"/>
<rect x="320" y="80" width="120" height="92" rx="9" fill="#d9c4a3" opacity="0.22"/>
<rect x="320" y="78" width="120" height="92" rx="9" fill="#fff6e6" stroke="#e0b96a" stroke-width="1.5"/>
<rect x="338" y="94" width="84" height="9" rx="4.5" fill="#d4793a"/>
<rect x="338" y="114" width="84" height="6" rx="3" fill="#7a6450" opacity="0.6"/>
<rect x="338" y="127" width="72" height="6" rx="3" fill="#7a6450" opacity="0.6"/>
<rect x="338" y="140" width="60" height="6" rx="3" fill="#7a6450" opacity="0.6"/>
<rect x="338" y="153" width="48" height="6" rx="3" fill="#7a6450" opacity="0.6"/>
<text x="380.0" y="190.0" text-anchor="middle" font-size="11" font-weight="700" fill="#b5531f" font-family="SF Mono,JetBrains Mono,Menlo,Consolas,monospace">openapi.json</text>
<text x="380.0" y="206.0" text-anchor="middle" font-size="10" font-weight="600" fill="#7a6450" font-family="SF Mono,JetBrains Mono,Menlo,Consolas,monospace">(/v3/api-docs)</text>
<line x1="440.0" y1="110.0" x2="476.6" y2="95.0" stroke="#d4793a" stroke-width="3.0" stroke-linecap="round"/><polygon points="484.0,92.0 478.3,99.2 474.9,90.9" fill="#b5531f"/>
<line x1="440.0" y1="140.0" x2="476.6" y2="155.0" stroke="#d4793a" stroke-width="3.0" stroke-linecap="round"/><polygon points="484.0,158.0 474.9,159.1 478.3,150.8" fill="#b5531f"/>
<g transform="translate(486.0,80.0)"><rect x="0" y="0" width="88.0" height="26.0" rx="13.0" fill="#f6a821" opacity="0.95"/><text x="44.0" y="17.2" text-anchor="middle" font-size="12" font-weight="700" fill="#16110c" font-family="Avenir Next,Avenir,Helvetica Neue,Helvetica,Arial,sans-serif">Swagger UI</text></g>
<g transform="translate(486.0,146.0)"><rect x="0" y="0" width="53.0" height="26.0" rx="13.0" fill="#f6a821" opacity="0.95"/><text x="26.5" y="17.2" text-anchor="middle" font-size="12" font-weight="700" fill="#16110c" font-family="Avenir Next,Avenir,Helvetica Neue,Helvetica,Arial,sans-serif">ReDoc</text></g>
</svg>
