<svg xmlns="http://www.w3.org/2000/svg" viewBox="0 0 560 380" role="img"
     aria-label="Request lifecycle: an inbound HTTP request passes the Problem, TraceContext, Correlation and ContentNegotiation layers, outermost first, before reaching the rest_controller handler, and errors unwind to an RFC 9457 problem+json response"
     font-family="Avenir Next,Avenir,Helvetica Neue,Helvetica,Arial,sans-serif">
<text x="280.0" y="24.0" text-anchor="middle" font-size="12.5" font-weight="700" fill="#3a2a1c" font-family="Avenir Next,Avenir,Helvetica Neue,Helvetica,Arial,sans-serif">inbound HTTP request</text>
<line x1="280.0" y1="30.0" x2="280.0" y2="44.0" stroke="#d4793a" stroke-width="3.0" stroke-linecap="round"/><polygon points="280.0,52.0 275.5,44.0 284.5,44.0" fill="#b5531f"/>
<rect x="150.0" y="58.5" width="260.0" height="48.0" rx="9" fill="#d9c4a3" opacity="0.22"/><rect x="150.0" y="56.0" width="260.0" height="48.0" rx="9" fill="#fdf6ea" stroke="#e0cda8" stroke-width="1.5"/><text x="280.0" y="77.0" text-anchor="middle" font-size="13.0" font-weight="700" fill="#2a1d10" font-family="Avenir Next,Avenir,Helvetica Neue,Helvetica,Arial,sans-serif">ProblemLayer</text><text x="280.0" y="91.0" text-anchor="middle" font-size="10.0" fill="#7a6450" font-family="Avenir Next,Avenir,Helvetica Neue,Helvetica,Arial,sans-serif">errors → problem+json</text><line x1="280.0" y1="104.0" x2="280.0" y2="112.0" stroke="#d4793a" stroke-width="3.0" stroke-linecap="round"/><polygon points="280.0,120.0 275.5,112.0 284.5,112.0" fill="#b5531f"/><rect x="150.0" y="122.5" width="260.0" height="48.0" rx="9" fill="#d9c4a3" opacity="0.22"/><rect x="150.0" y="120.0" width="260.0" height="48.0" rx="9" fill="#fdf6ea" stroke="#e0cda8" stroke-width="1.5"/><text x="280.0" y="141.0" text-anchor="middle" font-size="13.0" font-weight="700" fill="#2a1d10" font-family="Avenir Next,Avenir,Helvetica Neue,Helvetica,Arial,sans-serif">TraceContextLayer</text><text x="280.0" y="155.0" text-anchor="middle" font-size="10.0" fill="#7a6450" font-family="Avenir Next,Avenir,Helvetica Neue,Helvetica,Arial,sans-serif">W3C traceparent in / out</text><line x1="280.0" y1="168.0" x2="280.0" y2="176.0" stroke="#d4793a" stroke-width="3.0" stroke-linecap="round"/><polygon points="280.0,184.0 275.5,176.0 284.5,176.0" fill="#b5531f"/><rect x="150.0" y="186.5" width="260.0" height="48.0" rx="9" fill="#d9c4a3" opacity="0.22"/><rect x="150.0" y="184.0" width="260.0" height="48.0" rx="9" fill="#fdf6ea" stroke="#e0cda8" stroke-width="1.5"/><text x="280.0" y="205.0" text-anchor="middle" font-size="13.0" font-weight="700" fill="#2a1d10" font-family="Avenir Next,Avenir,Helvetica Neue,Helvetica,Arial,sans-serif">CorrelationLayer</text><text x="280.0" y="219.0" text-anchor="middle" font-size="10.0" fill="#7a6450" font-family="Avenir Next,Avenir,Helvetica Neue,Helvetica,Arial,sans-serif">ensure-or-generate id</text><line x1="280.0" y1="232.0" x2="280.0" y2="240.0" stroke="#d4793a" stroke-width="3.0" stroke-linecap="round"/><polygon points="280.0,248.0 275.5,240.0 284.5,240.0" fill="#b5531f"/><rect x="150.0" y="250.5" width="260.0" height="48.0" rx="9" fill="#d9c4a3" opacity="0.22"/><rect x="150.0" y="248.0" width="260.0" height="48.0" rx="9" fill="#fdf6ea" stroke="#e0cda8" stroke-width="1.5"/><text x="280.0" y="269.0" text-anchor="middle" font-size="13.0" font-weight="700" fill="#2a1d10" font-family="Avenir Next,Avenir,Helvetica Neue,Helvetica,Arial,sans-serif">ContentNegotiationLayer</text><text x="280.0" y="283.0" text-anchor="middle" font-size="10.0" fill="#7a6450" font-family="Avenir Next,Avenir,Helvetica Neue,Helvetica,Arial,sans-serif">Accept → JSON / XML</text>
<line x1="280.0" y1="296.0" x2="280.0" y2="310.0" stroke="#d4793a" stroke-width="3.0" stroke-linecap="round"/><polygon points="280.0,318.0 275.5,310.0 284.5,310.0" fill="#b5531f"/>
<rect x="180.0" y="320.5" width="200.0" height="46.0" rx="9" fill="#d9c4a3" opacity="0.22"/><rect x="180.0" y="318.0" width="200.0" height="46.0" rx="9" fill="#fff6e6" stroke="#e0b96a" stroke-width="1.5"/><text x="280.0" y="338.0" text-anchor="middle" font-size="13" font-weight="700" fill="#2a1d10" font-family="SF Mono,JetBrains Mono,Menlo,Consolas,monospace">#[rest_controller]</text><text x="280.0" y="352.0" text-anchor="middle" font-size="10.0" fill="#7a6450" font-family="Avenir Next,Avenir,Helvetica Neue,Helvetica,Arial,sans-serif">your handler runs</text>
<text x="540.0" y="84.0" text-anchor="end" font-size="10" font-weight="600" fill="#7a6450" font-family="Avenir Next,Avenir,Helvetica Neue,Helvetica,Arial,sans-serif" font-style="italic">outermost</text>
<text x="540.0" y="276.0" text-anchor="end" font-size="10" font-weight="600" fill="#7a6450" font-family="Avenir Next,Avenir,Helvetica Neue,Helvetica,Arial,sans-serif" font-style="italic">innermost</text>
</svg>
