<svg xmlns="http://www.w3.org/2000/svg" viewBox="0 0 560 220" role="img"
     aria-label="Workflow DAG: balance-check and limit-check run in parallel in one layer and both feed the approve gate, which depends on both"
     font-family="Avenir Next,Avenir,Helvetica Neue,Helvetica,Arial,sans-serif">
<text x="170.0" y="26.0" text-anchor="middle" font-size="11" font-weight="700" fill="#7a6450" font-family="Avenir Next,Avenir,Helvetica Neue,Helvetica,Arial,sans-serif">parallel layer</text>
<rect x="40.0" y="42.5" width="188.0" height="52.0" rx="9" fill="#d9c4a3" opacity="0.22"/><rect x="40.0" y="40.0" width="188.0" height="52.0" rx="9" fill="#fdf6ea" stroke="#e0cda8" stroke-width="1.5"/><text x="134.0" y="63.0" text-anchor="middle" font-size="13.0" font-weight="700" fill="#2a1d10" font-family="Avenir Next,Avenir,Helvetica Neue,Helvetica,Arial,sans-serif">balance-check</text><text x="134.0" y="77.0" text-anchor="middle" font-size="10.0" fill="#7a6450" font-family="Avenir Next,Avenir,Helvetica Neue,Helvetica,Arial,sans-serif">funds_ok: bool</text>
<rect x="40.0" y="130.5" width="188.0" height="52.0" rx="9" fill="#d9c4a3" opacity="0.22"/><rect x="40.0" y="128.0" width="188.0" height="52.0" rx="9" fill="#fdf6ea" stroke="#e0cda8" stroke-width="1.5"/><text x="134.0" y="151.0" text-anchor="middle" font-size="13.0" font-weight="700" fill="#2a1d10" font-family="Avenir Next,Avenir,Helvetica Neue,Helvetica,Arial,sans-serif">limit-check</text><text x="134.0" y="165.0" text-anchor="middle" font-size="10.0" fill="#7a6450" font-family="Avenir Next,Avenir,Helvetica Neue,Helvetica,Arial,sans-serif">within_limit: bool</text>
<rect x="360.0" y="86.5" width="188.0" height="52.0" rx="9" fill="#d9c4a3" opacity="0.22"/><rect x="360.0" y="84.0" width="188.0" height="52.0" rx="9" fill="#fff6e6" stroke="#e0b96a" stroke-width="1.5"/><text x="454.0" y="107.0" text-anchor="middle" font-size="14" font-weight="700" fill="#2a1d10" font-family="Avenir Next,Avenir,Helvetica Neue,Helvetica,Arial,sans-serif">approve</text><text x="454.0" y="121.0" text-anchor="middle" font-size="10.0" fill="#7a6450" font-family="Avenir Next,Avenir,Helvetica Neue,Helvetica,Arial,sans-serif">depends_on both</text>
<path d="M228.0,66.0 Q288.2,105.2 352.0,102.4" fill="none" stroke="#d4793a" stroke-width="3.0" stroke-linecap="round"/><polygon points="360.0,102.0 352.2,106.9 351.8,97.9" fill="#b5531f"/>
<path d="M228.0,154.0 Q288.2,114.8 352.0,117.6" fill="none" stroke="#d4793a" stroke-width="3.0" stroke-linecap="round"/><polygon points="360.0,118.0 351.8,122.1 352.2,113.1" fill="#b5531f"/>
</svg>
