<svg xmlns="http://www.w3.org/2000/svg" xmlns:xlink="http://www.w3.org/1999/xlink" viewBox="0 0 720 300" role="img" aria-label="Crate and module index" font-family="Avenir Next,Avenir,Helvetica Neue,Helvetica,Arial,sans-serif"><defs><linearGradient id="fld" x1="0" y1="0" x2="720" y2="300" gradientUnits="userSpaceOnUse"><stop offset="0" stop-color="#fdf6ea"/><stop offset="1" stop-color="#f7ecd8"/></linearGradient><linearGradient id="pnl" x1="490" y1="14" x2="706" y2="286" gradientUnits="userSpaceOnUse"><stop offset="0" stop-color="#0e1217"/><stop offset="1" stop-color="#16100b"/></linearGradient><linearGradient id="grh" x1="0" y1="0" x2="720" y2="0" gradientUnits="userSpaceOnUse"><stop offset="0" stop-color="#f6a821"/><stop offset="1" stop-color="#d4793a"/></linearGradient></defs><rect width="720" height="300" fill="url(#fld)"/><rect x="0" y="0" width="8" height="300" fill="url(#grh)"/><rect x="490" y="14" width="216" height="272" rx="16" fill="url(#pnl)"/><rect x="490" y="14" width="216" height="272" rx="16" fill="none" stroke="#f6a821" stroke-width="1" opacity="0.22"/><g fill="#ffd980"><circle cx="528" cy="56" r="1.4" opacity="0.6"/><circle cx="678" cy="236" r="1.4" opacity="0.55"/><circle cx="644" cy="66" r="1.1" opacity="0.5"/><circle cx="512" cy="210" r="1.1" opacity="0.45"/></g><circle cx="552" cy="246" r="1.3" fill="#bfe26a" opacity="0.6"/><text x="40" y="40" fill="#b5531f" font-size="15" font-weight="800" letter-spacing="2.5">APPENDIX A</text><text x="186" y="40" fill="#9a8163" font-size="12.5" font-weight="600" letter-spacing="1.5" font-family="SF Mono,JetBrains Mono,Menlo,Consolas,monospace">MODULE INDEX</text><rect x="40" y="49" width="46" height="4" rx="2" fill="#d4793a"/><g transform="translate(40,70)"><rect x="0" y="2.5" width="360" height="40" rx="9" fill="#d9c4a3" opacity="0.30"/><rect x="0" y="0" width="360" height="40" rx="9" fill="#fffaf0" stroke="#d4793a" stroke-width="1.8"/><text x="180.0" y="25" text-anchor="middle" fill="#3a2a1c" font-size="13" font-weight="700">firefly-core</text></g><g transform="translate(40,122)"><rect x="0" y="2.5" width="360" height="40" rx="9" fill="#d9c4a3" opacity="0.30"/><rect x="0" y="0" width="360" height="40" rx="9" fill="#fffaf0" stroke="#d4793a" stroke-width="1.8"/><text x="180.0" y="25" text-anchor="middle" fill="#3a2a1c" font-size="13" font-weight="700">firefly-eda</text></g><g transform="translate(40,174)"><rect x="0" y="2.5" width="360" height="40" rx="9" fill="#d9c4a3" opacity="0.30"/><rect x="0" y="0" width="360" height="40" rx="9" fill="#fffaf0" stroke="#d4793a" stroke-width="1.8"/><text x="180.0" y="25" text-anchor="middle" fill="#3a2a1c" font-size="13" font-weight="700">firefly-cqrs</text></g><g transform="translate(601,150)"><circle r="66" fill="#f6a821" opacity="0.07"/><circle r="40" fill="#ffc24a" opacity="0.10"/><path d="M-80,84 C-46,44 -24,18 -8,-2" fill="none" stroke="#f6a821" stroke-width="2.4" opacity="0.10" stroke-linecap="round"/><path d="M-80,84 C-46,44 -24,18 -8,-2" fill="none" stroke="#ffd980" stroke-width="1" opacity="0.22" stroke-linecap="round"/><g transform="rotate(-16)"><circle cx="0" cy="30" r="24" fill="#f6a821" opacity="0.18"/><circle cx="0" cy="30" r="14" fill="#ffc24a" opacity="0.45"/><path d="M-3,-6 C-40,-30 -52,-2 -16,8 Z" fill="#ffd980" opacity="0.22"/><path d="M3,-6 C40,-30 52,-2 16,8 Z" fill="#ffd980" opacity="0.22"/><ellipse cx="0" cy="26" rx="11" ry="16" fill="#f6a821"/><ellipse cx="0" cy="28" rx="6" ry="10" fill="#fff2cf"/><ellipse cx="0" cy="2" rx="9" ry="13" fill="#1a130c" stroke="#c97e10" stroke-width="1.6"/><ellipse cx="0" cy="-13" rx="5.5" ry="6.5" fill="#1a130c" stroke="#c97e10" stroke-width="1.3"/><path d="M-3,-18 C-9,-28 -13,-30 -17,-33" fill="none" stroke="#c97e10" stroke-width="1.5" stroke-linecap="round"/><path d="M3,-18 C9,-28 13,-30 17,-33" fill="none" stroke="#c97e10" stroke-width="1.5" stroke-linecap="round"/></g><circle cx="50" cy="-46" r="2" fill="#ffd980" opacity="0.7"/><circle cx="62" cy="28" r="1.6" fill="#bfe26a" opacity="0.75"/><circle cx="-54" cy="-40" r="1.6" fill="#ffd980" opacity="0.6"/></g></svg>
