<svg xmlns="http://www.w3.org/2000/svg" xmlns:xlink="http://www.w3.org/1999/xlink" viewBox="0 0 720 300" role="img" aria-label="The Reactive Model — Mono and Flux" font-family="Avenir Next,Avenir,Helvetica Neue,Helvetica,Arial,sans-serif"><defs><linearGradient id="fld" x1="0" y1="0" x2="720" y2="300" gradientUnits="userSpaceOnUse"><stop offset="0" stop-color="#fdf6ea"/><stop offset="1" stop-color="#f7ecd8"/></linearGradient><linearGradient id="pnl" x1="490" y1="14" x2="706" y2="286" gradientUnits="userSpaceOnUse"><stop offset="0" stop-color="#0e1217"/><stop offset="1" stop-color="#16100b"/></linearGradient><linearGradient id="grh" x1="0" y1="0" x2="720" y2="0" gradientUnits="userSpaceOnUse"><stop offset="0" stop-color="#f6a821"/><stop offset="1" stop-color="#d4793a"/></linearGradient></defs><rect width="720" height="300" fill="url(#fld)"/><rect x="0" y="0" width="8" height="300" fill="url(#grh)"/><rect x="490" y="14" width="216" height="272" rx="16" fill="url(#pnl)"/><rect x="490" y="14" width="216" height="272" rx="16" fill="none" stroke="#f6a821" stroke-width="1" opacity="0.22"/><g fill="#ffd980"><circle cx="528" cy="56" r="1.4" opacity="0.6"/><circle cx="678" cy="236" r="1.4" opacity="0.55"/><circle cx="644" cy="66" r="1.1" opacity="0.5"/><circle cx="512" cy="210" r="1.1" opacity="0.45"/></g><circle cx="552" cy="246" r="1.3" fill="#bfe26a" opacity="0.6"/><text x="40" y="40" fill="#b5531f" font-size="15" font-weight="800" letter-spacing="2.5">CHAPTER 6</text><text x="186" y="40" fill="#9a8163" font-size="12.5" font-weight="600" letter-spacing="1.5" font-family="SF Mono,JetBrains Mono,Menlo,Consolas,monospace">MONO &amp; FLUX</text><rect x="40" y="49" width="46" height="4" rx="2" fill="#d4793a"/><text x="56" y="92" fill="#b5531f" font-size="15" font-weight="800" font-family="SF Mono,JetBrains Mono,Menlo,Consolas,monospace">Mono&lt;T&gt;</text><circle cx="70" cy="116" r="11" fill="#f6a821"/><line x1="92" y1="116" x2="300" y2="116" stroke="#9a8163" stroke-width="2"/><text x="56" y="170" fill="#b5531f" font-size="15" font-weight="800" font-family="SF Mono,JetBrains Mono,Menlo,Consolas,monospace">Flux&lt;T&gt;</text><line x1="56" y1="196" x2="320" y2="196" stroke="#9a8163" stroke-width="2"/><circle cx="72" cy="196" r="9" fill="#f6a821"/><circle cx="118" cy="196" r="8" fill="#d4793a"/><circle cx="164" cy="196" r="7" fill="#f6a821"/><circle cx="210" cy="196" r="6" fill="#d4793a"/><circle cx="256" cy="196" r="5" fill="#f6a821"/><text x="300" y="200" fill="#b5531f" font-size="22">▶</text><g transform="translate(601,150)"><circle r="66" fill="#f6a821" opacity="0.07"/><circle r="40" fill="#ffc24a" opacity="0.10"/><path d="M-80,84 C-46,44 -24,18 -8,-2" fill="none" stroke="#f6a821" stroke-width="2.4" opacity="0.10" stroke-linecap="round"/><path d="M-80,84 C-46,44 -24,18 -8,-2" fill="none" stroke="#ffd980" stroke-width="1" opacity="0.22" stroke-linecap="round"/><g transform="rotate(-16)"><circle cx="0" cy="30" r="24" fill="#f6a821" opacity="0.18"/><circle cx="0" cy="30" r="14" fill="#ffc24a" opacity="0.45"/><path d="M-3,-6 C-40,-30 -52,-2 -16,8 Z" fill="#ffd980" opacity="0.22"/><path d="M3,-6 C40,-30 52,-2 16,8 Z" fill="#ffd980" opacity="0.22"/><ellipse cx="0" cy="26" rx="11" ry="16" fill="#f6a821"/><ellipse cx="0" cy="28" rx="6" ry="10" fill="#fff2cf"/><ellipse cx="0" cy="2" rx="9" ry="13" fill="#1a130c" stroke="#c97e10" stroke-width="1.6"/><ellipse cx="0" cy="-13" rx="5.5" ry="6.5" fill="#1a130c" stroke="#c97e10" stroke-width="1.3"/><path d="M-3,-18 C-9,-28 -13,-30 -17,-33" fill="none" stroke="#c97e10" stroke-width="1.5" stroke-linecap="round"/><path d="M3,-18 C9,-28 13,-30 17,-33" fill="none" stroke="#c97e10" stroke-width="1.5" stroke-linecap="round"/></g><circle cx="50" cy="-46" r="2" fill="#ffd980" opacity="0.7"/><circle cx="62" cy="28" r="1.6" fill="#bfe26a" opacity="0.75"/><circle cx="-54" cy="-40" r="1.6" fill="#ffd980" opacity="0.6"/></g></svg>
