<svg xmlns="http://www.w3.org/2000/svg" xmlns:xlink="http://www.w3.org/1999/xlink" viewBox="0 0 720 300" role="img" aria-label="Domain-Driven Design — aggregates and value objects" font-family="Avenir Next,Avenir,Helvetica Neue,Helvetica,Arial,sans-serif"><defs><linearGradient id="fld" x1="0" y1="0" x2="720" y2="300" gradientUnits="userSpaceOnUse"><stop offset="0" stop-color="#fbf3e4"/><stop offset="1" stop-color="#f6ead3"/></linearGradient><linearGradient id="grg" x1="-70" y1="-70" x2="70" y2="70" gradientUnits="userSpaceOnUse"><stop offset="0" stop-color="#f6a821"/><stop offset="1" stop-color="#d4793a"/></linearGradient><linearGradient id="grh" x1="0" y1="0" x2="720" y2="0" gradientUnits="userSpaceOnUse"><stop offset="0" stop-color="#f6a821"/><stop offset="1" stop-color="#d4793a"/></linearGradient></defs><rect width="720" height="300" fill="url(#fld)"/><rect x="0" y="0" width="8" height="300" fill="url(#grh)"/><rect x="40" y="244" width="46" height="4" rx="2" fill="#d4793a"/><text x="40" y="232" fill="#b5531f" font-size="15" font-weight="800" letter-spacing="3">CHAPTER 9</text><text x="40" y="272" fill="#9a8163" font-size="13" font-weight="600" letter-spacing="1.5" font-family="SF Mono,JetBrains Mono,Menlo,Consolas,monospace">DOMAIN MODEL</text><g transform="translate(40,70)"><rect x="0" y="0" width="57" height="30" rx="15" fill="#f6a821" opacity="0.92"/><text x="28" y="20" text-anchor="middle" fill="#16110c" font-size="13" font-weight="700">Money</text></g><g transform="translate(40,196)"><rect x="0" y="0" width="82" height="30" rx="15" fill="#f6a821" opacity="0.92"/><text x="41" y="20" text-anchor="middle" fill="#16110c" font-size="13" font-weight="700">WalletId</text></g><g transform="translate(330,70)"><rect x="0" y="0" width="90" height="30" rx="15" fill="#f6a821" opacity="0.92"/><text x="45" y="20" text-anchor="middle" fill="#16110c" font-size="13" font-weight="700">invariant</text></g><g transform="translate(330,196)"><rect x="0" y="0" width="114" height="30" rx="15" fill="#f6a821" opacity="0.92"/><text x="57" y="20" text-anchor="middle" fill="#16110c" font-size="13" font-weight="700">domain event</text></g><g transform="translate(170,116)"><rect x="0" y="0" width="150" height="40" rx="9" fill="url(#grh)" stroke="#b5531f" stroke-width="1.8"/><text x="75.0" y="25" text-anchor="middle" fill="#16110c" font-size="13" font-weight="700">Wallet aggregate</text></g><g transform="translate(600,150)"><circle r="78" fill="#f6a821" opacity="0.10"/><circle r="66" fill="none" stroke="#f6a821" stroke-width="1.2" opacity="0.45"/><g fill="url(#grg)"><g id="et"><rect x="-7" y="-66" width="14" height="16" rx="2.5"/></g><use xlink:href="#et" transform="rotate(0)"/><use xlink:href="#et" transform="rotate(30)"/><use xlink:href="#et" transform="rotate(60)"/><use xlink:href="#et" transform="rotate(90)"/><use xlink:href="#et" transform="rotate(120)"/><use xlink:href="#et" transform="rotate(150)"/><use xlink:href="#et" transform="rotate(180)"/><use xlink:href="#et" transform="rotate(210)"/><use xlink:href="#et" transform="rotate(240)"/><use xlink:href="#et" transform="rotate(270)"/><use xlink:href="#et" transform="rotate(300)"/><use xlink:href="#et" transform="rotate(330)"/></g><circle r="55" fill="url(#grg)"/><circle r="44" fill="#fbf3e4"/><ellipse cx="0" cy="14" rx="20" ry="20" fill="#f6a821" opacity="0.25"/><ellipse cx="0" cy="14" rx="15" ry="15" fill="#f6a821" opacity="0.7"/><ellipse cx="0" cy="-6" rx="9" ry="13" fill="#3a2a1c" stroke="#c97e10" stroke-width="1.6"/><ellipse cx="0" cy="13" rx="10" ry="12" fill="#f6a821"/><ellipse cx="0" cy="13" rx="5" ry="7" fill="#fff2cf"/><path d="M-2,-9 C-26,-23 -33,-4 -12,2 Z" fill="#d4793a" opacity="0.5"/><path d="M2,-9 C26,-23 33,-4 12,2 Z" fill="#d4793a" opacity="0.5"/><path d="M-3,-16 C-9,-26 -13,-27 -16,-30" fill="none" stroke="#c97e10" stroke-width="1.6" stroke-linecap="round"/><path d="M3,-16 C9,-26 13,-27 16,-30" fill="none" stroke="#c97e10" stroke-width="1.6" stroke-linecap="round"/></g></svg>
