<svg xmlns="http://www.w3.org/2000/svg" xmlns:xlink="http://www.w3.org/1999/xlink" viewBox="0 0 720 300" role="img" aria-label="CQRS — commands and queries on a bus" font-family="Avenir Next,Avenir,Helvetica Neue,Helvetica,Arial,sans-serif"><defs><linearGradient id="fld" x1="0" y1="0" x2="720" y2="300" gradientUnits="userSpaceOnUse"><stop offset="0" stop-color="#fbf3e4"/><stop offset="1" stop-color="#f6ead3"/></linearGradient><linearGradient id="grg" x1="-70" y1="-70" x2="70" y2="70" gradientUnits="userSpaceOnUse"><stop offset="0" stop-color="#f6a821"/><stop offset="1" stop-color="#d4793a"/></linearGradient><linearGradient id="grh" x1="0" y1="0" x2="720" y2="0" gradientUnits="userSpaceOnUse"><stop offset="0" stop-color="#f6a821"/><stop offset="1" stop-color="#d4793a"/></linearGradient></defs><rect width="720" height="300" fill="url(#fld)"/><rect x="0" y="0" width="8" height="300" fill="url(#grh)"/><rect x="40" y="244" width="46" height="4" rx="2" fill="#d4793a"/><text x="40" y="232" fill="#b5531f" font-size="15" font-weight="800" letter-spacing="3">CHAPTER 10</text><text x="40" y="272" fill="#9a8163" font-size="13" font-weight="600" letter-spacing="1.5" font-family="SF Mono,JetBrains Mono,Menlo,Consolas,monospace">CQRS</text><g transform="translate(48,70)"><rect x="0" y="0" width="150" height="40" rx="9" fill="#fff7e6" stroke="#d4793a" stroke-width="1.8"/><text x="75.0" y="25" text-anchor="middle" fill="#3a2a1c" font-size="13" font-weight="700">DepositCommand</text></g><g transform="translate(48,190)"><rect x="0" y="0" width="150" height="40" rx="9" fill="#fff7e6" stroke="#d4793a" stroke-width="1.8"/><text x="75.0" y="25" text-anchor="middle" fill="#3a2a1c" font-size="13" font-weight="700">BalanceQuery</text></g><line x1="202" y1="90" x2="255.3" y2="125.6" stroke="#b5531f" stroke-width="3.5"/><polygon points="262.0,130.0 252.8,129.3 257.8,121.8" fill="#b5531f"/><line x1="202" y1="210" x2="256.3" y2="155.7" stroke="#b5531f" stroke-width="3.5"/><polygon points="262.0,150.0 259.5,158.8 253.2,152.5" fill="#b5531f"/><g transform="translate(272,108)"><rect x="0" y="0" width="110" height="40" rx="9" fill="url(#grh)" stroke="#b5531f" stroke-width="1.8"/><text x="55.0" y="25" text-anchor="middle" fill="#16110c" font-size="15" font-weight="700">Bus</text></g><line x1="384" y1="130" x2="402.0" y2="130.0" stroke="#b5531f" stroke-width="3.5"/><polygon points="410.0,130.0 402.0,134.5 402.0,125.5" fill="#b5531f"/><g transform="translate(600,150)"><circle r="78" fill="#f6a821" opacity="0.10"/><circle r="66" fill="none" stroke="#f6a821" stroke-width="1.2" opacity="0.45"/><g fill="url(#grg)"><g id="et"><rect x="-7" y="-66" width="14" height="16" rx="2.5"/></g><use xlink:href="#et" transform="rotate(0)"/><use xlink:href="#et" transform="rotate(30)"/><use xlink:href="#et" transform="rotate(60)"/><use xlink:href="#et" transform="rotate(90)"/><use xlink:href="#et" transform="rotate(120)"/><use xlink:href="#et" transform="rotate(150)"/><use xlink:href="#et" transform="rotate(180)"/><use xlink:href="#et" transform="rotate(210)"/><use xlink:href="#et" transform="rotate(240)"/><use xlink:href="#et" transform="rotate(270)"/><use xlink:href="#et" transform="rotate(300)"/><use xlink:href="#et" transform="rotate(330)"/></g><circle r="55" fill="url(#grg)"/><circle r="44" fill="#fbf3e4"/><ellipse cx="0" cy="14" rx="20" ry="20" fill="#f6a821" opacity="0.25"/><ellipse cx="0" cy="14" rx="15" ry="15" fill="#f6a821" opacity="0.7"/><ellipse cx="0" cy="-6" rx="9" ry="13" fill="#3a2a1c" stroke="#c97e10" stroke-width="1.6"/><ellipse cx="0" cy="13" rx="10" ry="12" fill="#f6a821"/><ellipse cx="0" cy="13" rx="5" ry="7" fill="#fff2cf"/><path d="M-2,-9 C-26,-23 -33,-4 -12,2 Z" fill="#d4793a" opacity="0.5"/><path d="M2,-9 C26,-23 33,-4 12,2 Z" fill="#d4793a" opacity="0.5"/><path d="M-3,-16 C-9,-26 -13,-27 -16,-30" fill="none" stroke="#c97e10" stroke-width="1.6" stroke-linecap="round"/><path d="M3,-16 C9,-26 13,-27 16,-30" fill="none" stroke="#c97e10" stroke-width="1.6" stroke-linecap="round"/></g></svg>
